<?xml version="1.0" standalone="no"?>
<!DOCTYPE svg PUBLIC "-//W3C//DTD SVG 20010904//EN"
 "http://www.w3.org/TR/2001/REC-SVG-20010904/DTD/svg10.dtd">
<svg version="1.0" xmlns="http://www.w3.org/2000/svg"
 width="2816.000000pt" height="1536.000000pt" viewBox="0 0 2816.000000 1536.000000"
 preserveAspectRatio="xMidYMid meet">

<g transform="translate(0.000000,1536.000000) scale(0.100000,-0.100000)"
fill="#000000" stroke="none">
<path d="M15770 11605 c0 -2 23 -17 52 -31 72 -36 143 -91 204 -156 52 -55
113 -158 94 -158 -5 0 -10 6 -10 14 0 8 -4 16 -8 18 -4 2 -29 30 -54 64 -74
96 -175 166 -301 209 -160 53 -306 42 -467 -36 -73 -35 -101 -58 -244 -197
-162 -159 -223 -213 -461 -402 -71 -57 -132 -107 -135 -110 -14 -16 -599 -492
-793 -645 -56 -44 -186 -151 -290 -236 l-187 -156 -84 -6 c-97 -7 -210 -46
-295 -102 -68 -45 -76 -40 -12 7 99 74 210 115 324 119 58 2 60 3 175 98 65
52 168 138 231 191 63 52 135 112 160 133 25 20 45 42 43 48 -1 6 2 8 8 4 11
-7 110 83 110 100 0 5 -7 2 -14 -7 -7 -10 -15 -16 -18 -13 -2 2 -47 -30 -99
-73 -52 -43 -155 -127 -229 -187 -74 -60 -177 -144 -228 -187 l-92 -79 -82 -9
c-170 -20 -284 -74 -400 -190 -92 -93 -147 -199 -174 -330 -75 -377 201 -744
585 -777 l75 -6 119 -101 c65 -56 132 -112 148 -125 l30 -24 30 22 c53 39 373
302 417 343 23 21 42 44 42 49 0 13 -30 42 -127 123 -46 37 -83 73 -83 80 0 7
12 46 26 87 49 142 42 307 -18 457 -13 33 -17 56 -11 60 11 8 367 300 608 498
88 72 286 235 440 361 l281 230 64 -59 c73 -66 163 -116 265 -148 56 -18 93
-22 187 -22 l118 1 282 -347 c155 -191 317 -389 360 -440 77 -89 79 -94 69
-125 -6 -17 -18 -54 -27 -82 -25 -78 -30 -236 -10 -323 9 -40 23 -90 32 -112
15 -37 15 -41 -3 -64 -43 -56 -293 -361 -494 -601 l-217 -261 -123 1 c-101 0
-137 -4 -194 -22 -83 -26 -176 -81 -251 -147 -38 -33 -58 -45 -67 -38 -7 5
-83 66 -170 136 -97 78 -162 124 -170 120 -6 -4 -37 -29 -67 -54 -60 -52 -350
-283 -394 -316 l-28 -20 53 -44 c547 -449 746 -620 794 -680 83 -104 192 -172
346 -216 79 -23 104 -26 188 -21 168 9 298 67 426 192 81 79 131 162 166 275
30 95 33 261 6 358 -21 73 -31 52 105 218 178 218 348 427 491 606 l142 177
57 1 c489 3 803 514 583 950 -18 36 -54 88 -79 116 -47 51 -65 51 -20 -1 33
-37 92 -158 100 -205 4 -26 -6 -12 -40 54 -35 69 -62 106 -120 163 -41 40 -79
73 -85 73 -6 0 11 -20 36 -45 26 -24 44 -47 41 -50 -5 -5 -30 -10 -73 -15 -5
0 1 -7 15 -15 25 -14 25 -14 3 -15 -26 0 -32 -27 -8 -36 22 -9 18 -23 -7 -33
-23 -9 -23 -9 5 -21 15 -7 27 -17 27 -21 0 -10 -26 -19 -58 -20 -25 0 -25 -1
8 -13 19 -7 40 -11 46 -9 7 2 15 0 19 -6 4 -7 -4 -11 -19 -11 -13 0 -33 -3
-43 -7 -14 -6 -10 -10 22 -19 l40 -11 -44 -9 c-25 -5 -47 -16 -49 -23 -3 -8
-1 -11 4 -8 5 3 20 -1 34 -8 l25 -13 -28 -11 c-16 -6 -38 -12 -50 -12 -12 -1
-1 -6 26 -11 47 -10 65 -28 27 -28 -13 0 -20 -7 -20 -20 0 -11 5 -20 10 -20 6
0 10 -5 10 -11 0 -5 -3 -8 -8 -5 -4 2 -23 -3 -42 -11 l-35 -16 33 -7 c37 -9
53 -19 31 -21 -8 -1 -18 -2 -24 -4 -5 -1 -19 -3 -29 -3 -19 -2 -19 -3 -2 -15
17 -12 17 -14 2 -20 -9 -4 -16 -11 -16 -17 0 -6 6 -8 13 -5 6 4 5 1 -3 -7 -17
-14 -24 -58 -9 -58 22 0 6 -32 -21 -42 -28 -9 -29 -11 -13 -23 14 -11 16 -16
6 -26 -19 -19 -16 -24 14 -38 25 -11 26 -14 10 -23 -14 -8 -16 -13 -6 -24 9
-11 8 -14 -3 -14 -8 0 -15 -12 -16 -29 -2 -22 3 -31 18 -36 26 -8 16 -25 -16
-25 -13 0 -24 -4 -24 -9 0 -13 71 -21 91 -10 11 5 19 6 19 1 0 -13 -101 -60
-166 -77 -32 -8 -90 -15 -129 -15 -72 0 -161 20 -159 36 1 5 -15 17 -35 26
-26 12 -30 18 -16 18 11 0 28 7 38 14 17 13 17 15 -5 30 -23 17 -23 17 -3 29
18 10 15 13 -30 23 -40 10 -44 12 -20 13 55 2 61 17 14 34 l-44 15 30 7 c56
13 58 14 46 29 -6 7 -8 15 -6 18 3 3 -8 8 -25 11 -35 7 -40 27 -7 28 18 0 16
3 -12 15 -35 16 -68 43 -54 45 12 2 27 6 33 8 3 1 16 5 29 7 38 7 36 12 -8 24
-22 6 -43 16 -47 22 -4 6 -3 8 3 5 17 -10 82 21 79 37 -1 8 -10 23 -19 34 -9
10 -14 22 -11 25 4 4 -6 12 -22 18 l-29 12 35 7 35 6 -37 7 c-38 8 -62 27 -34
27 21 0 20 19 0 27 -14 5 -12 8 7 19 l24 12 -28 7 c-15 4 -36 5 -47 2 -11 -3
-22 -1 -25 3 -3 5 11 12 32 16 65 11 72 21 25 33 -30 8 -40 16 -36 26 6 14 -5
19 -33 16 -6 -1 -15 4 -19 10 -4 7 -3 9 4 5 6 -3 13 -2 17 3 3 5 14 8 25 6 32
-6 23 13 -10 20 -33 7 -40 24 -12 32 12 3 18 14 17 36 0 27 -4 32 -31 38 -18
3 -46 4 -64 2 -27 -2 -31 -1 -21 11 7 9 27 13 56 11 53 -4 61 15 14 32 -28 11
-33 33 -8 33 6 0 7 -4 4 -10 -8 -14 8 -13 37 3 20 10 23 15 12 25 -8 7 -15 8
-19 2 -3 -6 -12 -10 -18 -10 -14 1 53 60 68 60 5 0 21 9 35 20 40 31 1 25 -51
-8 -79 -51 -144 -119 -197 -205 -48 -79 -58 -106 -82 -232 -8 -43 -9 -39 -5
35 6 108 13 141 31 161 8 9 12 23 9 31 -8 21 85 148 147 201 62 53 147 98 233
122 33 10 62 19 64 21 2 2 -36 51 -85 110 -149 180 -246 298 -309 379 -88 111
-124 157 -148 185 -118 139 -206 253 -202 261 4 5 11 7 16 3 14 -8 186 -227
188 -239 1 -5 21 -30 45 -55 46 -47 207 -246 295 -365 100 -134 216 -264 235
-265 13 0 16 4 9 13 -53 68 -190 239 -283 352 -63 77 -159 194 -212 260 -53
66 -130 161 -172 210 -42 50 -76 97 -76 105 0 8 7 47 15 85 56 267 -54 549
-268 683 -73 45 -157 81 -157 67z m-1362 -862 c0 -21 -2 -23 -10 -9 -5 9 -6
21 -3 26 10 16 13 12 13 -17z m-33 -13 c-3 -5 -1 -10 4 -10 6 0 11 -4 11 -9 0
-5 -9 -7 -20 -4 -16 4 -18 8 -9 19 13 16 23 19 14 4z m-55 -65 c-7 -8 -17 -15
-22 -15 -5 0 -16 -7 -24 -15 -9 -8 -23 -15 -31 -15 -12 0 -8 7 11 25 15 14 31
25 35 25 5 0 15 7 22 16 9 11 15 12 17 5 2 -7 -2 -18 -8 -26z m100 20 c0 -8
-7 -15 -16 -15 -14 0 -14 3 -4 15 7 8 14 15 16 15 2 0 4 -7 4 -15z m-42 -44
c6 -1 12 -5 12 -11 0 -5 -20 -10 -45 -10 -41 0 -54 7 -39 23 3 3 18 4 32 2 15
-2 33 -4 40 -4z m-158 -121 c0 -5 -4 -10 -10 -10 -5 0 -10 5 -10 10 0 6 5 10
10 10 6 0 10 -4 10 -10z m18 -77 c-10 -2 -28 -2 -40 0 -13 2 -5 4 17 4 22 1
32 -1 23 -4z m85 0 c-13 -2 -33 -2 -45 0 -13 2 -3 4 22 4 25 0 35 -2 23 -4z
m-53 -53 c0 -5 -7 -10 -15 -10 -8 0 -15 5 -15 10 0 6 7 10 15 10 8 0 15 -4 15
-10z m67 4 c-3 -3 -12 -4 -19 -1 -8 3 -5 6 6 6 11 1 17 -2 13 -5z m-90 -50
c-3 -3 -12 -4 -19 -1 -8 3 -5 6 6 6 11 1 17 -2 13 -5z m98 -4 c7 -12 -29 -12
-65 0 -21 7 -19 8 17 9 23 1 45 -3 48 -9z m-55 -50 c0 -5 -4 -10 -10 -10 -5 0
-10 5 -10 10 0 6 5 10 10 10 6 0 10 -4 10 -10z m50 -6 c0 -2 -9 -4 -20 -4 -11
0 -20 4 -20 9 0 5 9 7 20 4 11 -3 20 -7 20 -9z m-30 -28 c0 -3 -4 -8 -10 -11
-5 -3 -10 -1 -10 4 0 6 5 11 10 11 6 0 10 -2 10 -4z m50 -34 c0 -12 -109 -11
-117 1 -4 6 -1 8 8 5 8 -3 32 -2 54 1 41 8 55 6 55 -7z m106 -40 c-17 -16 -18
-16 -5 5 7 12 15 20 18 17 3 -2 -3 -12 -13 -22z m-80 -19 c13 -13 19 -14 22
-5 4 12 32 17 32 6 0 -11 -127 -122 -197 -173 -43 -31 -61 -26 -23 6 13 11 16
19 9 24 -13 8 -3 29 12 29 6 0 7 -4 4 -10 -16 -26 40 3 75 39 41 42 29 59 -41
60 -33 0 -64 3 -70 6 -24 15 -3 23 68 24 42 1 79 4 82 6 7 7 8 7 27 -12z m-56
-53 c0 -17 -38 -30 -69 -24 -31 6 -37 14 -24 27 10 11 93 8 93 -3z m-1640
-525 c-43 -44 -68 -62 -38 -27 8 9 26 29 38 45 13 15 28 27 34 27 6 0 -10 -20
-34 -45z m4897 -267 c-3 -8 -6 -5 -6 6 -1 11 2 17 5 13 3 -3 4 -12 1 -19z
m-3812 -528 c43 -34 90 -67 102 -73 24 -10 31 -27 13 -27 -10 0 -102 66 -182
131 -21 17 -38 35 -38 41 0 7 4 7 13 1 6 -6 48 -38 92 -73z m2583 -53 c-41
-53 -240 -298 -393 -482 -64 -77 -147 -179 -185 -226 l-70 -86 -103 5 c-174 8
-334 -46 -450 -149 -31 -27 -60 -49 -66 -49 -7 0 5 15 26 32 21 18 40 36 43
39 3 3 34 26 70 51 98 66 209 99 342 99 57 0 111 -1 118 -3 14 -3 116 110 242
267 110 138 178 221 283 345 50 59 107 128 128 154 48 58 59 61 15 3z m-1623
-727 c8 -13 231 -199 298 -249 26 -20 43 -37 37 -39 -8 -3 -60 36 -297 225
-23 18 -47 33 -54 33 -7 0 -73 -46 -147 -102 -161 -124 -212 -161 -212 -154 0
2 69 58 153 124 83 66 163 132 176 146 27 28 36 32 46 16z"/>
<path d="M14355 10130 c-3 -5 -2 -10 4 -10 5 0 13 5 16 10 3 6 2 10 -4 10 -5
0 -13 -4 -16 -10z"/>
<path d="M11976 11173 c-23 -67 -32 -217 -17 -295 23 -121 35 -141 69 -120 10
7 8 27 -10 98 -18 72 -22 116 -21 227 0 75 0 137 -2 137 -2 0 -10 -21 -19 -47z"/>
<path d="M11970 10725 c-8 -9 -8 -15 -2 -15 12 0 26 19 19 26 -2 2 -10 -2 -17
-11z"/>
<path d="M13803 10648 c-79 -63 -90 -72 -180 -151 -72 -63 -158 -127 -170
-127 -6 0 -30 17 -54 38 -66 57 -240 196 -271 216 l-28 18 -82 -73 c-138 -121
-300 -177 -480 -166 l-87 6 -239 -287 c-131 -158 -284 -343 -339 -412 -56 -69
-110 -133 -121 -143 -19 -17 -19 -17 -18 12 1 16 4 27 8 25 4 -3 17 5 30 18
l22 22 -24 7 c-14 4 -19 8 -12 9 6 1 17 4 22 5 6 1 19 3 31 4 24 1 21 26 -4
26 -20 0 -35 15 -16 16 8 0 5 4 -6 8 -11 5 -23 4 -26 0 -3 -5 -13 -3 -23 4
-16 12 -16 14 5 32 12 11 19 14 15 8 -11 -20 4 -15 40 12 36 27 54 32 54 13 0
-8 6 -7 16 4 26 26 9 37 -50 32 -32 -3 -57 -1 -61 6 -5 9 23 15 49 11 5 -1 21
2 37 8 18 6 29 6 31 -1 2 -5 15 -1 28 11 14 11 19 20 13 21 -7 0 -13 -4 -13
-8 0 -5 -7 -9 -15 -9 -8 0 -15 5 -15 11 0 6 -5 4 -10 -4 -7 -12 -10 -12 -10
-1 0 7 -6 11 -15 7 -25 -9 -46 4 -36 23 7 12 21 16 50 15 24 0 39 4 38 10 -1
6 4 10 11 8 8 -1 11 2 7 8 -3 5 -16 10 -28 10 -30 0 -67 11 -67 19 0 4 6 15
13 25 10 13 29 18 80 19 42 1 66 5 64 12 -5 13 -46 15 -53 3 -4 -6 -9 -6 -14
2 -4 7 -33 11 -73 11 -38 0 -67 5 -67 10 0 6 9 8 19 4 11 -3 22 -1 26 5 3 6
11 8 16 4 5 -3 9 -2 8 3 -3 20 2 27 12 13 8 -12 9 -10 7 9 -3 28 -38 54 -45
34 -3 -7 -9 -13 -15 -13 -6 0 -8 7 -4 15 4 12 -3 15 -35 15 -24 0 -38 4 -34
10 3 6 15 10 26 10 30 0 97 31 79 37 -8 3 -21 13 -28 21 -9 12 -30 16 -77 17
l-65 0 20 20 c17 17 22 18 30 6 7 -12 11 -12 23 -2 9 7 21 11 29 10 26 -3 39
1 33 12 -4 6 -23 10 -44 9 -52 -3 -55 -2 -41 15 7 9 22 13 34 10 12 -3 15 -2
9 1 -19 8 -16 31 4 43 10 5 15 12 11 16 -3 4 -35 -28 -70 -71 -34 -42 -83
-100 -108 -129 -25 -29 -67 -81 -95 -116 -27 -35 -92 -112 -143 -171 l-94
-108 -64 0 c-210 0 -396 -94 -521 -263 -48 -66 -53 -67 -22 -4 31 60 153 178
229 220 36 19 95 44 133 53 74 20 91 36 24 23 -124 -23 -276 -113 -358 -211
-118 -142 -170 -313 -150 -492 19 -166 90 -307 210 -418 115 -106 272 -168
426 -168 l72 0 69 -86 c38 -48 80 -101 94 -119 27 -36 63 -79 290 -355 84
-102 187 -228 230 -281 l78 -96 -19 -69 c-29 -99 -28 -255 1 -349 36 -115 78
-183 170 -276 136 -137 269 -193 460 -194 118 0 197 20 307 77 82 43 135 86
208 171 33 39 123 121 200 184 77 63 198 162 269 221 71 59 182 150 247 202
64 52 175 142 245 200 203 167 314 258 446 365 68 55 207 169 310 252 176 145
188 153 230 153 69 0 170 26 239 60 143 73 225 148 293 271 49 89 66 141 76
234 22 186 -34 383 -145 513 -54 63 -63 51 -12 -15 25 -32 54 -76 65 -98 23
-47 47 -143 38 -152 -3 -4 -6 3 -6 14 0 11 -19 57 -41 102 -31 60 -58 97 -108
143 -69 65 -131 107 -131 89 0 -5 9 -13 20 -16 16 -5 19 -12 14 -27 -3 -11 -1
-23 4 -27 6 -4 8 -12 4 -18 -6 -9 -33 -15 -114 -22 -5 -1 -8 -6 -8 -12 0 -6 7
-8 16 -5 10 4 22 -1 31 -11 8 -10 12 -12 8 -6 -5 10 0 11 22 2 15 -6 29 -10
31 -9 2 1 6 -1 9 -4 4 -3 -11 -6 -33 -5 -21 0 -48 -2 -59 -5 -11 -2 -22 -5
-25 -6 -3 0 8 -11 23 -24 24 -19 26 -24 13 -29 -9 -4 -16 -3 -16 1 0 11 -100
-1 -103 -13 -1 -5 17 -17 41 -25 46 -16 55 -29 20 -32 -13 0 -27 -2 -33 -3 -5
-2 -32 -3 -60 -4 -39 -1 -46 -4 -32 -12 25 -14 21 -24 -10 -27 -15 -1 -32 -7
-38 -14 -7 -8 -7 -9 1 -5 7 4 14 1 17 -6 3 -7 22 -12 49 -12 63 1 58 -22 -6
-31 -28 -4 -59 -8 -68 -9 -32 -3 -29 -13 5 -19 18 -3 42 -13 53 -21 16 -12 17
-16 5 -24 -8 -5 -11 -16 -8 -25 5 -13 -1 -16 -32 -16 -21 0 -53 -3 -70 -6 -28
-6 -32 -10 -27 -29 4 -16 1 -25 -12 -30 -12 -5 1 -12 46 -27 34 -12 60 -23 58
-26 -6 -5 -36 -10 -96 -17 -47 -5 -49 -6 -21 -14 28 -8 41 -31 17 -31 -9 0
-16 -4 -16 -9 0 -12 25 -21 58 -21 35 0 16 -17 -23 -22 -38 -4 -38 -21 1 -28
46 -9 5 -20 -72 -20 -47 0 -64 -4 -64 -13 0 -15 0 -15 83 -17 77 -3 78 -22 2
-34 -16 -2 -31 -5 -32 -6 -2 -2 -12 -4 -23 -5 -11 -1 -23 -3 -26 -4 -4 0 -1
-8 6 -16 6 -8 8 -20 4 -26 -4 -8 -3 -9 4 -5 7 4 12 3 12 -3 0 -5 9 -8 20 -6
11 2 20 0 20 -6 0 -5 6 -9 14 -9 8 0 18 -5 22 -11 4 -8 -3 -9 -24 -4 -19 4
-33 2 -38 -6 -5 -8 -3 -10 7 -5 8 4 5 0 -6 -8 -11 -9 -25 -14 -32 -12 -16 7
-17 -16 -1 -32 9 -9 8 -12 -7 -13 -20 -1 19 -16 57 -22 10 -2 21 -7 25 -12 5
-4 2 -5 -4 -1 -7 4 -13 2 -13 -3 0 -6 -21 -11 -50 -11 -27 0 -50 -4 -50 -8 0
-11 116 -32 138 -26 21 7 -25 -35 -147 -135 -149 -120 -217 -177 -392 -321
-281 -233 -449 -370 -543 -443 -50 -39 -129 -102 -176 -141 -117 -98 -200
-159 -207 -152 -4 3 -1 6 6 6 7 0 9 5 6 10 -3 6 1 10 9 10 9 0 16 7 16 15 0 8
5 15 10 15 6 0 10 3 10 8 0 4 -19 8 -42 9 -74 3 -80 4 -75 10 3 3 23 7 44 10
41 6 73 19 73 31 0 5 -16 14 -35 22 -35 14 -51 35 -34 45 5 4 7 11 3 16 -3 6
0 10 7 8 36 -4 139 2 139 9 0 4 -26 9 -57 10 -80 3 -94 22 -18 23 84 2 88 2
91 17 1 7 0 8 -2 3 -3 -6 -13 -3 -23 6 -12 10 -45 16 -96 19 -42 1 -79 5 -81
7 -3 2 33 7 78 11 46 4 94 9 108 11 14 2 38 4 54 4 83 3 -25 17 -157 21 -15 0
4 20 19 20 9 0 22 7 30 15 14 13 10 15 -30 15 -28 0 -46 5 -46 11 0 8 23 10
78 6 120 -10 136 16 17 27 -53 6 -53 6 -30 16 11 5 40 9 64 9 62 1 44 13 -31
20 -61 6 -63 7 -61 34 2 23 -2 27 -25 29 -15 0 -31 2 -37 3 -5 2 -18 3 -27 4
-10 0 -18 6 -18 11 0 6 8 14 18 17 9 4 25 17 35 30 10 13 25 23 33 23 8 0 14
5 14 11 0 6 7 8 16 5 9 -3 12 -2 9 5 -4 5 3 18 14 28 12 10 21 22 21 27 0 4
-12 -4 -27 -18 -16 -14 -56 -46 -91 -71 -67 -49 -303 -237 -312 -249 -3 -4
-18 -13 -34 -22 -22 -11 -34 -12 -52 -4 -13 6 -24 15 -24 19 0 4 -20 27 -46
52 -57 56 -146 104 -238 128 -77 20 -211 25 -264 10 -30 -9 -35 -7 -71 32 -41
44 -191 224 -275 330 -50 64 -252 313 -341 421 -88 106 -118 147 -112 153 3 3
18 -8 32 -23 15 -16 23 -22 19 -14 -7 13 -5 13 9 1 9 -7 15 -17 12 -21 -3 -5
1 -14 8 -22 20 -21 143 -171 262 -318 60 -74 136 -166 170 -205 34 -38 96
-113 138 -166 42 -53 83 -99 92 -103 9 -3 15 -2 13 3 -3 9 -68 88 -105 127
-12 13 -34 41 -49 61 -16 21 -42 54 -59 73 -16 20 -41 51 -55 70 -14 19 -50
64 -80 100 -30 36 -73 88 -95 115 -22 28 -44 55 -51 60 -6 6 -26 30 -45 55
-18 25 -39 50 -45 55 -6 6 -18 21 -27 35 -10 14 -35 49 -56 78 l-38 53 25 67
c21 57 26 88 29 207 5 136 4 143 -25 225 -17 46 -28 89 -24 96 8 14 56 73 132
163 30 36 77 93 105 127 96 119 309 380 394 482 l85 102 101 0 c115 0 205 17
287 53 65 29 157 91 207 138 41 40 27 47 231 -119 l152 -124 68 54 c131 103
420 342 420 347 0 3 -13 7 -30 8 -23 2 -47 -12 -107 -59z m-2108 -448 c-3 -5
-11 -10 -16 -10 -6 0 -7 5 -4 10 3 6 11 10 16 10 6 0 7 -4 4 -10z m79 -6 c4
-10 1 -14 -6 -12 -15 5 -23 28 -10 28 5 0 13 -7 16 -16z m-164 -38 c0 -3 -4
-8 -10 -11 -5 -3 -10 -1 -10 4 0 6 5 11 10 11 6 0 10 -2 10 -4z m10 -56 c0 -5
-5 -10 -11 -10 -5 0 -7 5 -4 10 3 6 8 10 11 10 2 0 4 -4 4 -10z m90 -1 c0 -5
-9 -9 -20 -9 -11 0 -20 4 -20 8 0 4 9 8 20 9 11 1 20 -2 20 -8z m-47 -56 c-7
-2 -19 -2 -25 0 -7 3 -2 5 12 5 14 0 19 -2 13 -5z m-120 -37 c6 -16 -19 -30
-28 -16 -4 6 -1 10 5 10 6 0 8 5 5 10 -3 6 -2 10 3 10 6 0 12 -6 15 -14z m257
-11 c-5 -6 -9 -14 -7 -16 1 -2 -2 1 -8 7 -5 6 -25 9 -42 7 -18 -2 -33 0 -33 6
0 12 26 17 68 13 24 -3 30 -7 22 -17z m-115 6 c-16 -14 -63 -22 -70 -12 -5 9
18 17 60 20 11 0 15 -3 10 -8z m-215 -21 c-8 -5 -17 -7 -19 -4 -3 3 1 9 9 14
8 5 17 7 19 4 3 -3 -1 -9 -9 -14z m117 -26 c-3 -3 -12 -4 -19 -1 -8 3 -5 6 6
6 11 1 17 -2 13 -5z m56 -1 c-7 -2 -21 -2 -30 0 -10 3 -4 5 12 5 17 0 24 -2
18 -5z m-233 -43 c0 -5 -5 -10 -11 -10 -5 0 -7 5 -4 10 3 6 8 10 11 10 2 0 4
-4 4 -10z m370 -31 c0 -16 -3 -19 -12 -12 -7 6 -21 9 -30 8 -10 -2 -20 1 -23
5 -3 5 3 7 15 5 11 -2 22 0 25 6 11 16 25 10 25 -12z m3630 -284 c0 -8 -2 -15
-4 -15 -2 0 -6 7 -10 15 -3 8 -1 15 4 15 6 0 10 -7 10 -15z m-15 -64 c-6 -5
-25 10 -25 20 0 5 6 4 14 -3 8 -7 12 -15 11 -17z m-3636 -153 c-1 -18 0 -37 2
-43 2 -5 0 -11 -6 -13 -5 -2 -13 10 -16 25 -3 15 -16 49 -27 75 -30 64 -27 69
13 26 26 -28 34 -46 34 -70z m3411 -18 c0 -5 -2 -10 -4 -10 -3 0 -8 5 -11 10
-3 6 -1 10 4 10 6 0 11 -4 11 -10z m-3005 -1118 c-6 -6 -34 28 -35 42 0 5 9
-1 20 -14 11 -13 18 -26 15 -28z m146 -164 c7 -13 5 -15 -11 -11 -11 3 -17 9
-14 14 3 5 0 9 -6 9 -6 0 -15 11 -20 25 -5 14 -14 25 -20 25 -5 0 -10 8 -10
18 1 12 11 6 36 -23 20 -22 40 -47 45 -57z m39 -50 c0 -6 -6 -5 -15 2 -8 7
-15 14 -15 16 0 2 7 1 15 -2 8 -4 15 -11 15 -16z m60 -83 c0 -28 -19 -24 -25
5 -4 16 -11 32 -16 35 -5 4 -9 12 -9 18 1 17 50 -41 50 -58z m138 -27 c75 -1
147 -12 117 -19 -5 -1 8 -5 30 -8 l40 -7 -50 -8 c-93 -13 -105 -20 -42 -24 96
-5 66 -21 -50 -26 -14 -1 -21 -7 -20 -18 1 -12 5 -14 11 -8 13 13 39 13 31 0
-3 -5 -1 -10 4 -10 6 0 11 -5 11 -11 0 -5 -4 -7 -10 -4 -5 3 -10 1 -10 -4 0
-15 73 -14 88 1 7 7 12 9 12 6 0 -4 -7 -14 -16 -22 -12 -12 -37 -16 -105 -16
-64 0 -89 -3 -89 -12 0 -10 -2 -10 -9 0 -4 8 -11 13 -15 13 -40 -6 -136 1
-131 9 3 6 18 10 33 10 26 1 26 1 8 15 -20 15 -20 15 0 15 11 0 29 7 40 15 12
8 24 11 28 8 3 -3 6 -1 6 6 0 8 -7 10 -20 6 -10 -3 -38 0 -62 7 l-43 13 80 11
c80 11 80 11 37 19 -32 6 -42 12 -38 22 4 8 6 19 6 24 0 6 9 7 20 4 11 -4 60
-7 108 -7z m292 -48 c8 -5 11 -12 8 -16 -4 -3 -14 1 -23 10 -18 17 -9 21 15 6z
m697 -46 c-3 -3 -12 -4 -19 -1 -8 3 -5 6 6 6 11 1 17 -2 13 -5z m-877 -38 c0
-3 -4 -8 -10 -11 -5 -3 -10 -1 -10 4 0 6 5 11 10 11 6 0 10 -2 10 -4z m830 -6
c0 -5 -7 -7 -15 -4 -8 4 -15 8 -15 10 0 2 7 4 15 4 8 0 15 -4 15 -10z m-891
-69 c12 -8 10 -11 -11 -16 -14 -4 -39 -5 -54 -3 l-29 4 35 11 c45 14 43 14 59
4z m9 -53 c49 -2 57 -17 10 -19 -66 -3 -223 3 -233 10 -15 9 62 18 125 14 30
-1 74 -4 98 -5z m-48 -84 c-75 -12 -120 -10 -120 7 0 5 44 8 98 7 l97 -1 -75
-13z m30 -33 l25 -2 -23 -10 c-13 -5 -40 -10 -60 -12 -54 -4 -45 -22 11 -22
32 -1 53 -7 65 -19 16 -17 16 -18 -3 -9 -11 6 -26 8 -33 6 -30 -11 -213 39
-199 53 3 3 25 8 48 10 23 2 43 5 45 7 3 2 81 1 124 -2z m-8 -143 c-10 -10
-172 -18 -172 -8 0 10 32 17 85 19 21 1 41 3 42 5 2 2 15 1 29 -2 15 -3 22 -8
16 -14z m903 -8 c3 -5 1 -10 -4 -10 -6 0 -11 5 -11 10 0 6 2 10 4 10 3 0 8 -4
11 -10z m-885 -60 c11 -7 5 -8 -20 -4 -43 8 -51 14 -19 14 13 0 31 -5 39 -10z"/>
<path d="M12495 7890 c-3 -5 -2 -10 4 -10 5 0 13 5 16 10 3 6 2 10 -4 10 -5 0
-13 -4 -16 -10z"/>
<path d="M11919 10663 c-13 -16 -12 -17 4 -4 9 7 17 15 17 17 0 8 -8 3 -21
-13z"/>
<path d="M11960 10629 c0 -5 5 -7 10 -4 6 3 10 8 10 11 0 2 -4 4 -10 4 -5 0
-10 -5 -10 -11z"/>
<path d="M11924 10589 c-19 -22 -19 -22 4 -10 12 6 22 16 22 21 0 15 -5 12
-26 -11z"/>
<path d="M14058 10563 c-15 -10 -30 -24 -33 -32 -4 -9 6 -5 22 9 15 14 32 28
38 32 16 14 1 8 -27 -9z"/>
<path d="M11802 10524 c-18 -20 -31 -39 -28 -41 5 -6 65 58 66 70 0 12 -5 8
-38 -29z"/>
<path d="M11827 10475 c-15 -19 -26 -35 -23 -35 9 0 56 51 56 60 0 15 -3 13
-33 -25z"/>
<path d="M11747 10463 c-10 -9 -9 -23 1 -23 5 0 9 7 9 15 0 17 -1 18 -10 8z"/>
<path d="M13906 10444 c-15 -14 -25 -29 -21 -32 3 -3 18 6 32 21 35 34 25 44
-11 11z"/>
<path d="M11780 10415 c-8 -9 -8 -15 -2 -15 12 0 26 19 19 26 -2 2 -10 -2 -17
-11z"/>
<path d="M11705 10409 c-4 -6 -5 -12 -2 -15 2 -3 7 2 10 11 7 17 1 20 -8 4z"/>
<path d="M11604 10283 c-43 -54 -89 -109 -101 -123 -13 -14 -23 -30 -23 -37 0
-7 -3 -13 -7 -13 -5 0 -23 -19 -42 -41 -23 -28 -28 -38 -14 -31 11 6 37 33 59
59 21 26 42 50 46 51 5 2 8 10 8 17 0 7 4 15 8 17 16 6 134 149 128 155 -3 3
4 14 16 24 11 11 16 19 10 19 -6 0 -45 -44 -88 -97z"/>
<path d="M12001 10024 c0 -11 3 -14 6 -6 3 7 2 16 -1 19 -3 4 -6 -2 -5 -13z"/>
<path d="M11347 9973 c-92 -119 -117 -148 -134 -154 -16 -7 -16 -8 3 -8 25 -1
98 74 88 91 -4 6 -3 8 4 4 5 -3 25 12 42 34 17 22 28 40 23 40 -4 0 0 5 10 11
9 5 17 14 17 19 0 21 -17 8 -53 -37z"/>
<path d="M11969 9958 c-6 -21 -5 -38 2 -38 5 0 9 9 9 20 0 16 -7 28 -11 18z"/>
<path d="M12010 9950 c0 -5 5 -10 11 -10 5 0 7 5 4 10 -3 6 -8 10 -11 10 -2 0
-4 -4 -4 -10z"/>
<path d="M11930 9900 c-12 -8 -11 -10 8 -10 12 0 22 5 22 10 0 13 -11 13 -30
0z"/>
<path d="M11970 9900 c0 -5 7 -10 15 -10 8 0 15 5 15 10 0 6 -7 10 -15 10 -8
0 -15 -4 -15 -10z"/>
<path d="M11957 9873 c-4 -3 -7 -11 -7 -17 0 -6 5 -5 12 2 6 6 9 14 7 17 -3 3
-9 2 -12 -2z"/>
<path d="M11904 9826 c-13 -10 -16 -18 -8 -25 7 -8 17 -4 34 14 26 28 8 36
-26 11z"/>
<path d="M11817 9769 c7 -7 15 -10 18 -7 3 3 -2 9 -12 12 -14 6 -15 5 -6 -5z"/>
<path d="M11866 9763 c-6 -14 -5 -15 5 -6 7 7 10 15 7 18 -3 3 -9 -2 -12 -12z"/>
<path d="M11831 9732 c-1 -8 -6 -10 -13 -6 -10 5 -10 4 -1 -6 15 -16 28 -8 20
12 -4 11 -6 11 -6 0z"/>
<path d="M15295 9700 c3 -5 11 -10 16 -10 6 0 7 5 4 10 -3 6 -11 10 -16 10 -6
0 -7 -4 -4 -10z"/>
<path d="M14240 9671 c0 -5 43 -49 96 -98 53 -48 102 -99 110 -113 10 -19 13
-21 14 -7 0 10 7 20 15 23 8 4 15 10 15 15 0 16 -210 189 -230 189 -11 0 -20
-4 -20 -9z"/>
<path d="M15445 9660 c3 -5 11 -10 16 -10 6 0 7 5 4 10 -3 6 -11 10 -16 10 -6
0 -7 -4 -4 -10z"/>
<path d="M14385 9187 c-4 -36 -4 -85 0 -108 13 -76 56 -200 72 -206 31 -12 30
20 -3 98 -26 60 -37 101 -44 174 -5 54 -11 99 -13 102 -3 2 -8 -25 -12 -60z"/>
<path d="M15006 9210 c7 -7 19 -7 35 -1 23 9 22 10 -10 10 -24 1 -32 -2 -25
-9z"/>
<path d="M16750 9209 c0 -5 5 -7 10 -4 6 3 10 8 10 11 0 2 -4 4 -10 4 -5 0
-10 -5 -10 -11z"/>
<path d="M17268 9183 c7 -3 16 -2 19 1 4 3 -2 6 -13 5 -11 0 -14 -3 -6 -6z"/>
<path d="M14890 9010 c0 -5 7 -10 15 -10 8 0 15 5 15 10 0 6 -7 10 -15 10 -8
0 -15 -4 -15 -10z"/>
<path d="M14814 8738 c-3 -4 2 -8 10 -8 8 0 17 4 20 8 3 5 -2 9 -10 9 -8 0
-17 -4 -20 -9z"/>
<path d="M14895 8530 c-3 -6 1 -7 9 -4 18 7 21 14 7 14 -6 0 -13 -4 -16 -10z"/>
<path d="M13615 8111 c-3 -5 -1 -12 5 -16 5 -3 10 1 10 9 0 18 -6 21 -15 7z"/>
<path d="M13590 8040 c0 -5 5 -10 10 -10 6 0 10 5 10 10 0 6 -4 10 -10 10 -5
0 -10 -4 -10 -10z"/>
<path d="M12653 7983 c9 -2 25 -2 35 0 9 3 1 5 -18 5 -19 0 -27 -2 -17 -5z"/>
<path d="M13515 7980 c-3 -5 1 -10 10 -10 9 0 13 5 10 10 -3 6 -8 10 -10 10
-2 0 -7 -4 -10 -10z"/>
<path d="M12745 7966 c22 -7 42 -12 44 -10 8 7 -4 12 -44 18 l-40 5 40 -13z"/>
<path d="M13304 7921 c-53 -40 -99 -81 -89 -81 11 0 97 64 119 89 26 29 16 26
-30 -8z"/>
<path d="M13545 7900 c-3 -6 1 -7 9 -4 18 7 21 14 7 14 -6 0 -13 -4 -16 -10z"/>
<path d="M13650 7590 c0 -5 9 -10 20 -10 11 0 20 5 20 10 0 6 -9 10 -20 10
-11 0 -20 -4 -20 -10z"/>
<path d="M13505 7540 c-3 -5 1 -10 9 -10 9 0 16 5 16 10 0 6 -4 10 -9 10 -6 0
-13 -4 -16 -10z"/>
<path d="M10582 5923 l3 -47 55 -11 c73 -15 117 -39 140 -77 39 -65 42 -129
38 -963 -3 -721 -5 -805 -21 -851 -9 -27 -27 -60 -39 -72 -30 -27 -89 -52
-126 -52 -38 0 -52 -17 -52 -62 l0 -38 446 0 445 0 -3 47 -3 47 -67 12 c-79
15 -100 25 -126 61 -38 54 -44 114 -49 516 l-5 387 527 0 526 0 -3 -407 -3
-408 -28 -56 c-30 -63 -60 -83 -138 -95 -58 -9 -69 -19 -69 -65 l0 -39 445 0
445 0 0 39 c0 46 -1 47 -77 67 -124 32 -147 67 -164 252 -16 181 -8 1576 10
1622 32 82 70 110 189 140 43 11 43 11 40 53 l-3 42 -440 0 -440 0 0 -45 0
-44 65 -13 c75 -15 106 -35 132 -85 31 -60 38 -141 38 -470 l0 -318 -526 0
-526 0 5 348 c5 379 11 423 63 476 26 25 44 32 142 56 43 11 43 11 40 53 l-3
42 -443 3 -443 2 3 -47z"/>
<path d="M13140 5925 c0 -41 2 -45 28 -51 115 -25 159 -56 188 -134 16 -40 18
-115 24 -695 7 -609 8 -655 28 -736 48 -201 131 -330 278 -435 246 -176 671
-225 990 -115 115 39 184 82 274 171 110 109 162 216 206 420 13 62 17 186 23
705 8 699 6 679 76 751 31 32 52 44 93 53 29 6 60 11 67 11 11 0 15 13 15 50
l0 50 -347 -2 -348 -3 -3 -33 c-4 -44 9 -58 65 -66 66 -9 129 -42 152 -80 51
-82 53 -112 49 -759 -4 -582 -5 -605 -26 -682 -52 -189 -139 -308 -276 -375
-111 -55 -202 -73 -346 -67 -140 5 -224 31 -322 97 -84 57 -140 125 -178 217
-64 154 -65 162 -65 863 l0 635 25 49 c32 63 59 83 140 99 l65 13 3 47 3 47
-440 0 -441 0 0 -45z"/>
<path d="M15642 5923 l3 -48 46 -6 c60 -9 116 -36 136 -65 42 -65 43 -86 48
-856 5 -768 0 -942 -33 -1008 -22 -45 -69 -76 -128 -85 -71 -10 -74 -13 -74
-61 l0 -44 593 0 c740 0 824 9 1024 106 243 117 363 358 308 618 -17 78 -58
171 -103 232 -68 93 -229 187 -377 222 -72 17 -75 19 -50 30 14 7 32 12 39 12
8 0 54 20 102 44 187 94 277 235 276 431 0 193 -92 340 -265 425 -186 90 -279
100 -980 100 l-568 0 3 -47z m1144 -126 c67 -22 144 -80 182 -137 83 -124 90
-339 14 -474 -36 -63 -112 -127 -189 -157 -53 -21 -76 -23 -285 -27 l-228 -4
0 405 c0 222 3 407 7 411 5 4 107 6 228 4 170 -4 232 -8 271 -21z m-5 -961
c148 -32 250 -107 308 -229 46 -97 52 -126 52 -256 0 -236 -108 -383 -319
-436 -38 -9 -136 -15 -299 -18 l-243 -4 0 478 0 479 218 0 c147 0 238 -5 283
-14z"/>
</g>
</svg>
